solid OpenSCAD_Model
  facet normal -1 0 0
    outer loop
      vertex -10 -19.1658 4.53909
      vertex -10 -18.6056 23
      vertex -10 -18.6056 3
    endloop
  endfacet
  facet normal -1 0 0
    outer loop
      vertex -10 -19.1658 4.53909
      vertex -10 -19.1658 21.4609
      vertex -10 -18.6056 23
    endloop
  endfacet
  facet normal -1 0 0
    outer loop
      vertex -10 -20.5842 5.35802
      vertex -10 -19.1658 21.4609
      vertex -10 -19.1658 4.53909
    endloop
  endfacet
  facet normal -1 0 0
    outer loop
      vertex -10 -20.5842 5.35802
      vertex -10 -20.5842 20.642
      vertex -10 -19.1658 21.4609
    endloop
  endfacet
  facet normal -1 0 0
    outer loop
      vertex -10 -22.1972 5.07361
      vertex -10 -20.5842 20.642
      vertex -10 -20.5842 5.35802
    endloop
  endfacet
  facet normal -1 0 0
    outer loop
      vertex -10 -22.1972 5.07361
      vertex -10 -22.1972 20.9264
      vertex -10 -20.5842 20.642
    endloop
  endfacet
  facet normal -1 0 0
    outer loop
      vertex -10 -23.25 3.81893
      vertex -10 -22.1972 20.9264
      vertex -10 -22.1972 5.07361
    endloop
  endfacet
  facet normal -1 -0 0
    outer loop
      vertex -10 -22.1972 20.9264
      vertex -10 -23.25 3.81893
      vertex -10 -23.25 22.1811
    endloop
  endfacet
  facet normal -1 0 0
    outer loop
      vertex -10 -19.1658 -15.4609
      vertex -10 -18.6056 3
      vertex -10 -18.6056 -17
    endloop
  endfacet
  facet normal -1 0 0
    outer loop
      vertex -10 -19.1658 -15.4609
      vertex -10 -19.1658 1.46091
      vertex -10 -18.6056 3
    endloop
  endfacet
  facet normal -1 0 0
    outer loop
      vertex -10 -20.5842 -14.642
      vertex -10 -19.1658 1.46091
      vertex -10 -19.1658 -15.4609
    endloop
  endfacet
  facet normal -1 0 0
    outer loop
      vertex -10 -20.5842 -14.642
      vertex -10 -20.5842 0.641975
      vertex -10 -19.1658 1.46091
    endloop
  endfacet
  facet normal -1 0 0
    outer loop
      vertex -10 -22.1972 -14.9264
      vertex -10 -20.5842 0.641975
      vertex -10 -20.5842 -14.642
    endloop
  endfacet
  facet normal -1 0 0
    outer loop
      vertex -10 -22.1972 -14.9264
      vertex -10 -22.1972 0.926389
      vertex -10 -20.5842 0.641975
    endloop
  endfacet
  facet normal -1 0 0
    outer loop
      vertex -10 -23.25 -16.1811
      vertex -10 -22.1972 0.926389
      vertex -10 -22.1972 -14.9264
    endloop
  endfacet
  facet normal -1 -0 0
    outer loop
      vertex -10 -22.1972 0.926389
      vertex -10 -23.25 -16.1811
      vertex -10 -23.25 2.18107
    endloop
  endfacet
  facet normal -1 0 0
    outer loop
      vertex -10 -18.6056 3
      vertex -10 11 -35
      vertex -10 -18.6056 -17
    endloop
  endfacet
  facet normal -1 0 0
    outer loop
      vertex -10 11 -35
      vertex -10 -19.1658 -18.5391
      vertex -10 -18.6056 -17
    endloop
  endfacet
  facet normal -1 0 0
    outer loop
      vertex -10 -28 -35
      vertex -10 -19.1658 -18.5391
      vertex -10 11 -35
    endloop
  endfacet
  facet normal -1 0 0
    outer loop
      vertex -10 -19.1658 -18.5391
      vertex -10 -28 -35
      vertex -10 -20.5842 -19.358
    endloop
  endfacet
  facet normal -1 0 0
    outer loop
      vertex -10 -28 -35
      vertex -10 -23.25 -16.1811
      vertex -10 -23.25 -17.8189
    endloop
  endfacet
  facet normal -1 -0 0
    outer loop
      vertex -10 -23.25 -16.1811
      vertex -10 -28 -35
      vertex -10 -23.25 2.18107
    endloop
  endfacet
  facet normal -1 -0 0
    outer loop
      vertex -10 -23.25 2.18107
      vertex -10 -28 -35
      vertex -10 -23.25 3.81893
    endloop
  endfacet
  facet normal -1 0 0
    outer loop
      vertex -10 -28 41
      vertex -10 -23.25 3.81893
      vertex -10 -28 -35
    endloop
  endfacet
  facet normal -1 0 0
    outer loop
      vertex -10 -23.25 3.81893
      vertex -10 -28 41
      vertex -10 -23.25 22.1811
    endloop
  endfacet
  facet normal -1 -0 0
    outer loop
      vertex -10 -22.1972 -19.0736
      vertex -10 -28 -35
      vertex -10 -23.25 -17.8189
    endloop
  endfacet
  facet normal -1 -0 0
    outer loop
      vertex -10 -20.5842 -19.358
      vertex -10 -28 -35
      vertex -10 -22.1972 -19.0736
    endloop
  endfacet
  facet normal -1 0 0
    outer loop
      vertex -10 11 -35
      vertex -10 -18.6056 3
      vertex -10 11 41
    endloop
  endfacet
  facet normal -1 0 0
    outer loop
      vertex -10 -18.6056 23
      vertex -10 11 41
      vertex -10 -18.6056 3
    endloop
  endfacet
  facet normal -1 0 0
    outer loop
      vertex -10 -19.1658 24.5391
      vertex -10 11 41
      vertex -10 -18.6056 23
    endloop
  endfacet
  facet normal -1 0 0
    outer loop
      vertex -10 -28 41
      vertex -10 -19.1658 24.5391
      vertex -10 -20.5842 25.358
    endloop
  endfacet
  facet normal -1 0 0
    outer loop
      vertex -10 -28 41
      vertex -10 -20.5842 25.358
      vertex -10 -22.1972 25.0736
    endloop
  endfacet
  facet normal -1 0 0
    outer loop
      vertex -10 -19.1658 24.5391
      vertex -10 -28 41
      vertex -10 11 41
    endloop
  endfacet
  facet normal -1 0 0
    outer loop
      vertex -10 -23.25 23.8189
      vertex -10 -28 41
      vertex -10 -22.1972 25.0736
    endloop
  endfacet
  facet normal -1 0 0
    outer loop
      vertex -10 -23.25 22.1811
      vertex -10 -28 41
      vertex -10 -23.25 23.8189
    endloop
  endfacet
  facet normal 0 -1 0
    outer loop
      vertex -8 -10 41
      vertex -0.965677 -10 5.97205
      vertex 8 -10 41
    endloop
  endfacet
  facet normal 0 -1 0
    outer loop
      vertex -8 -10 41
      vertex -2.52818 -10 4.83683
      vertex -0.965677 -10 5.97205
    endloop
  endfacet
  facet normal 0 -1 0
    outer loop
      vertex -8 -10 41
      vertex -3.125 -10 3
      vertex -2.52818 -10 4.83683
    endloop
  endfacet
  facet normal 0 -1 -0
    outer loop
      vertex -0.965677 -10 0.0279484
      vertex -8 -10 -35
      vertex 0.965677 -10 0.0279484
    endloop
  endfacet
  facet normal 0 -1 -0
    outer loop
      vertex -2.52818 -10 1.16317
      vertex -8 -10 -35
      vertex -0.965677 -10 0.0279484
    endloop
  endfacet
  facet normal 0 -1 -0
    outer loop
      vertex -3.125 -10 3
      vertex -8 -10 -35
      vertex -2.52818 -10 1.16317
    endloop
  endfacet
  facet normal 0 -1 0
    outer loop
      vertex -8 -10 -35
      vertex -3.125 -10 3
      vertex -8 -10 41
    endloop
  endfacet
  facet normal 0 -1 0
    outer loop
      vertex 0.965677 -10 5.97205
      vertex 8 -10 41
      vertex -0.965677 -10 5.97205
    endloop
  endfacet
  facet normal 0 -1 0
    outer loop
      vertex 2.52818 -10 4.83683
      vertex 8 -10 41
      vertex 0.965677 -10 5.97205
    endloop
  endfacet
  facet normal 0 -1 0
    outer loop
      vertex 3.125 -10 3
      vertex 8 -10 41
      vertex 2.52818 -10 4.83683
    endloop
  endfacet
  facet normal 0 -1 0
    outer loop
      vertex 8 -10 -35
      vertex 0.965677 -10 0.0279484
      vertex -8 -10 -35
    endloop
  endfacet
  facet normal 0 -1 0
    outer loop
      vertex 0.965677 -10 0.0279484
      vertex 8 -10 -35
      vertex 2.52818 -10 1.16317
    endloop
  endfacet
  facet normal 0 -1 0
    outer loop
      vertex 3.125 -10 3
      vertex 8 -10 -35
      vertex 8 -10 41
    endloop
  endfacet
  facet normal 0 -1 0
    outer loop
      vertex 2.52818 -10 1.16317
      vertex 8 -10 -35
      vertex 3.125 -10 3
    endloop
  endfacet
  facet normal -0 0 1
    outer loop
      vertex -8 -7.5 41
      vertex 8 -10 41
      vertex 8 -7.5 41
    endloop
  endfacet
  facet normal 0 0 1
    outer loop
      vertex 8 -10 41
      vertex -8 -7.5 41
      vertex -8 -10 41
    endloop
  endfacet
  facet normal 0 0 1
    outer loop
      vertex 8 -7.5 41
      vertex 10 11 41
      vertex 8 8.5 41
    endloop
  endfacet
  facet normal -0 0 1
    outer loop
      vertex 6.5 11 41
      vertex 8 8.5 41
      vertex 10 11 41
    endloop
  endfacet
  facet normal 0 0 1
    outer loop
      vertex 8 8.5 41
      vertex 6.5 11 41
      vertex 6.5 8.5 41
    endloop
  endfacet
  facet normal 0 0 1
    outer loop
      vertex 10 11 41
      vertex 8 -7.5 41
      vertex 10 -28 41
    endloop
  endfacet
  facet normal -0 0 1
    outer loop
      vertex 8 -10 41
      vertex 10 -28 41
      vertex 8 -7.5 41
    endloop
  endfacet
  facet normal 0 0 1
    outer loop
      vertex 10 -28 41
      vertex 8 -10 41
      vertex 8 -28 41
    endloop
  endfacet
  facet normal 0 0 1
    outer loop
      vertex -6.5 11 41
      vertex -8 8.5 41
      vertex -6.5 8.5 41
    endloop
  endfacet
  facet normal 0 0 1
    outer loop
      vertex -10 11 41
      vertex -8 -7.5 41
      vertex -8 8.5 41
    endloop
  endfacet
  facet normal 0 0 1
    outer loop
      vertex -8 -7.5 41
      vertex -10 11 41
      vertex -8 -10 41
    endloop
  endfacet
  facet normal -0 0 1
    outer loop
      vertex -10 11 41
      vertex -8 8.5 41
      vertex -6.5 11 41
    endloop
  endfacet
  facet normal 0 0 1
    outer loop
      vertex -8 -10 41
      vertex -10 11 41
      vertex -10 -28 41
    endloop
  endfacet
  facet normal 0 0 1
    outer loop
      vertex -8 -10 41
      vertex -10 -28 41
      vertex -8 -28 41
    endloop
  endfacet
  facet normal 1 -0 0
    outer loop
      vertex 10 -17.1658 1.46091
      vertex 10 -16.6056 -17
      vertex 10 -16.6056 3
    endloop
  endfacet
  facet normal 1 0 0
    outer loop
      vertex 10 -17.1658 1.46091
      vertex 10 -17.1658 -15.4609
      vertex 10 -16.6056 -17
    endloop
  endfacet
  facet normal 1 0 0
    outer loop
      vertex 10 -17.1658 1.46091
      vertex 10 -18.5842 -14.642
      vertex 10 -17.1658 -15.4609
    endloop
  endfacet
  facet normal 1 -0 0
    outer loop
      vertex 10 -18.5842 0.641975
      vertex 10 -18.5842 -14.642
      vertex 10 -17.1658 1.46091
    endloop
  endfacet
  facet normal 1 0 0
    outer loop
      vertex 10 -18.5842 0.641975
      vertex 10 -20.1972 -14.9264
      vertex 10 -18.5842 -14.642
    endloop
  endfacet
  facet normal 1 0 0
    outer loop
      vertex 10 -20.1972 0.926389
      vertex 10 -20.1972 -14.9264
      vertex 10 -18.5842 0.641975
    endloop
  endfacet
  facet normal 1 0 0
    outer loop
      vertex 10 -21.25 2.18107
      vertex 10 -20.1972 -14.9264
      vertex 10 -20.1972 0.926389
    endloop
  endfacet
  facet normal 1 0 0
    outer loop
      vertex 10 -20.1972 -14.9264
      vertex 10 -21.25 2.18107
      vertex 10 -21.25 -16.1811
    endloop
  endfacet
  facet normal 1 0 0
    outer loop
      vertex 10 11 41
      vertex 10 -16.6056 3
      vertex 10 11 -35
    endloop
  endfacet
  facet normal 1 0 0
    outer loop
      vertex 10 11 41
      vertex 10 -16.6056 23
      vertex 10 -16.6056 3
    endloop
  endfacet
  facet normal 1 0 0
    outer loop
      vertex 10 11 41
      vertex 10 -17.1658 24.5391
      vertex 10 -16.6056 23
    endloop
  endfacet
  facet normal 1 0 0
    outer loop
      vertex 10 11 41
      vertex 10 -18.5842 25.358
      vertex 10 -17.1658 24.5391
    endloop
  endfacet
  facet normal 1 -0 0
    outer loop
      vertex 10 -28 41
      vertex 10 -18.5842 25.358
      vertex 10 11 41
    endloop
  endfacet
  facet normal 1 0 0
    outer loop
      vertex 10 -28 41
      vertex 10 -21.25 22.1811
      vertex 10 -21.25 23.8189
    endloop
  endfacet
  facet normal 1 0 0
    outer loop
      vertex 10 -21.25 22.1811
      vertex 10 -28 41
      vertex 10 -21.25 3.81893
    endloop
  endfacet
  facet normal 1 0 0
    outer loop
      vertex 10 -21.25 3.81893
      vertex 10 -28 41
      vertex 10 -21.25 2.18107
    endloop
  endfacet
  facet normal 1 0 0
    outer loop
      vertex 10 -28 -35
      vertex 10 -21.25 2.18107
      vertex 10 -28 41
    endloop
  endfacet
  facet normal 1 0 0
    outer loop
      vertex 10 -21.25 2.18107
      vertex 10 -28 -35
      vertex 10 -21.25 -16.1811
    endloop
  endfacet
  facet normal 1 0 0
    outer loop
      vertex 10 -20.1972 25.0736
      vertex 10 -28 41
      vertex 10 -21.25 23.8189
    endloop
  endfacet
  facet normal 1 0 0
    outer loop
      vertex 10 -18.5842 25.358
      vertex 10 -28 41
      vertex 10 -20.1972 25.0736
    endloop
  endfacet
  facet normal 1 -0 0
    outer loop
      vertex 10 -16.6056 -17
      vertex 10 11 -35
      vertex 10 -16.6056 3
    endloop
  endfacet
  facet normal 1 -0 0
    outer loop
      vertex 10 -17.1658 -18.5391
      vertex 10 11 -35
      vertex 10 -16.6056 -17
    endloop
  endfacet
  facet normal 1 -0 0
    outer loop
      vertex 10 -18.5842 -19.358
      vertex 10 11 -35
      vertex 10 -17.1658 -18.5391
    endloop
  endfacet
  facet normal 1 0 0
    outer loop
      vertex 10 -28 -35
      vertex 10 -18.5842 -19.358
      vertex 10 -20.1972 -19.0736
    endloop
  endfacet
  facet normal 1 0 0
    outer loop
      vertex 10 -18.5842 -19.358
      vertex 10 -28 -35
      vertex 10 11 -35
    endloop
  endfacet
  facet normal 1 0 0
    outer loop
      vertex 10 -21.25 -17.8189
      vertex 10 -28 -35
      vertex 10 -20.1972 -19.0736
    endloop
  endfacet
  facet normal 1 0 0
    outer loop
      vertex 10 -21.25 -16.1811
      vertex 10 -28 -35
      vertex 10 -21.25 -17.8189
    endloop
  endfacet
  facet normal 1 -0 0
    outer loop
      vertex 10 -17.1658 21.4609
      vertex 10 -16.6056 3
      vertex 10 -16.6056 23
    endloop
  endfacet
  facet normal 1 0 0
    outer loop
      vertex 10 -17.1658 21.4609
      vertex 10 -17.1658 4.53909
      vertex 10 -16.6056 3
    endloop
  endfacet
  facet normal 1 -0 0
    outer loop
      vertex 10 -18.5842 20.642
      vertex 10 -17.1658 4.53909
      vertex 10 -17.1658 21.4609
    endloop
  endfacet
  facet normal 1 0 0
    outer loop
      vertex 10 -18.5842 20.642
      vertex 10 -18.5842 5.35802
      vertex 10 -17.1658 4.53909
    endloop
  endfacet
  facet normal 1 0 0
    outer loop
      vertex 10 -20.1972 20.9264
      vertex 10 -18.5842 5.35802
      vertex 10 -18.5842 20.642
    endloop
  endfacet
  facet normal 1 0 0
    outer loop
      vertex 10 -20.1972 20.9264
      vertex 10 -20.1972 5.07361
      vertex 10 -18.5842 5.35802
    endloop
  endfacet
  facet normal 1 0 0
    outer loop
      vertex 10 -21.25 22.1811
      vertex 10 -20.1972 5.07361
      vertex 10 -20.1972 20.9264
    endloop
  endfacet
  facet normal 1 0 0
    outer loop
      vertex 10 -20.1972 5.07361
      vertex 10 -21.25 22.1811
      vertex 10 -21.25 3.81893
    endloop
  endfacet
  facet normal 0 0 -1
    outer loop
      vertex -10 -28 -35
      vertex -8 -10 -35
      vertex -8 -28 -35
    endloop
  endfacet
  facet normal -0 0 -1
    outer loop
      vertex -8 -10 -35
      vertex -10 -28 -35
      vertex -8 -7.5 -35
    endloop
  endfacet
  facet normal 0 0 -1
    outer loop
      vertex -10 11 -35
      vertex -8 -7.5 -35
      vertex -10 -28 -35
    endloop
  endfacet
  facet normal 0 0 -1
    outer loop
      vertex -8 -10 -35
      vertex 8 -7.5 -35
      vertex 8 -10 -35
    endloop
  endfacet
  facet normal -0 0 -1
    outer loop
      vertex 8 -7.5 -35
      vertex -8 -10 -35
      vertex -8 -7.5 -35
    endloop
  endfacet
  facet normal 0 0 -1
    outer loop
      vertex 8 -10 -35
      vertex 10 -28 -35
      vertex 8 -28 -35
    endloop
  endfacet
  facet normal 0 0 -1
    outer loop
      vertex 10 -28 -35
      vertex 8 -10 -35
      vertex 10 11 -35
    endloop
  endfacet
  facet normal 0 0 -1
    outer loop
      vertex 8 -7.5 -35
      vertex 10 11 -35
      vertex 8 -10 -35
    endloop
  endfacet
  facet normal 0 0 -1
    outer loop
      vertex 8 8.5 -35
      vertex 10 11 -35
      vertex 8 -7.5 -35
    endloop
  endfacet
  facet normal 0 0 -1
    outer loop
      vertex 6.5 11 -35
      vertex 8 8.5 -35
      vertex 6.5 8.5 -35
    endloop
  endfacet
  facet normal 0 0 -1
    outer loop
      vertex 8 8.5 -35
      vertex 6.5 11 -35
      vertex 10 11 -35
    endloop
  endfacet
  facet normal 0 0 -1
    outer loop
      vertex -8 8.5 -35
      vertex -6.5 11 -35
      vertex -6.5 8.5 -35
    endloop
  endfacet
  facet normal 0 0 -1
    outer loop
      vertex -8 8.5 -35
      vertex -10 11 -35
      vertex -6.5 11 -35
    endloop
  endfacet
  facet normal 0 0 -1
    outer loop
      vertex -8 -7.5 -35
      vertex -10 11 -35
      vertex -8 8.5 -35
    endloop
  endfacet
  facet normal -1 0 0
    outer loop
      vertex 8 -17.1658 4.53909
      vertex 8 -16.6056 23
      vertex 8 -16.6056 3
    endloop
  endfacet
  facet normal -1 0 0
    outer loop
      vertex 8 -17.1658 4.53909
      vertex 8 -17.1658 21.4609
      vertex 8 -16.6056 23
    endloop
  endfacet
  facet normal -1 0 0
    outer loop
      vertex 8 -18.5842 5.35802
      vertex 8 -17.1658 21.4609
      vertex 8 -17.1658 4.53909
    endloop
  endfacet
  facet normal -1 0 0
    outer loop
      vertex 8 -18.5842 5.35802
      vertex 8 -18.5842 20.642
      vertex 8 -17.1658 21.4609
    endloop
  endfacet
  facet normal -1 0 0
    outer loop
      vertex 8 -20.1972 5.07361
      vertex 8 -18.5842 20.642
      vertex 8 -18.5842 5.35802
    endloop
  endfacet
  facet normal -1 0 0
    outer loop
      vertex 8 -20.1972 5.07361
      vertex 8 -20.1972 20.9264
      vertex 8 -18.5842 20.642
    endloop
  endfacet
  facet normal -1 0 0
    outer loop
      vertex 8 -21.25 3.81893
      vertex 8 -20.1972 20.9264
      vertex 8 -20.1972 5.07361
    endloop
  endfacet
  facet normal -1 -0 0
    outer loop
      vertex 8 -20.1972 20.9264
      vertex 8 -21.25 3.81893
      vertex 8 -21.25 22.1811
    endloop
  endfacet
  facet normal -1 0 0
    outer loop
      vertex 8 -17.1658 -15.4609
      vertex 8 -16.6056 3
      vertex 8 -16.6056 -17
    endloop
  endfacet
  facet normal -1 0 0
    outer loop
      vertex 8 -17.1658 -15.4609
      vertex 8 -17.1658 1.46091
      vertex 8 -16.6056 3
    endloop
  endfacet
  facet normal -1 0 0
    outer loop
      vertex 8 -18.5842 -14.642
      vertex 8 -17.1658 1.46091
      vertex 8 -17.1658 -15.4609
    endloop
  endfacet
  facet normal -1 0 0
    outer loop
      vertex 8 -18.5842 -14.642
      vertex 8 -18.5842 0.641975
      vertex 8 -17.1658 1.46091
    endloop
  endfacet
  facet normal -1 0 0
    outer loop
      vertex 8 -20.1972 -14.9264
      vertex 8 -18.5842 0.641975
      vertex 8 -18.5842 -14.642
    endloop
  endfacet
  facet normal -1 0 0
    outer loop
      vertex 8 -20.1972 -14.9264
      vertex 8 -20.1972 0.926389
      vertex 8 -18.5842 0.641975
    endloop
  endfacet
  facet normal -1 0 0
    outer loop
      vertex 8 -21.25 -16.1811
      vertex 8 -20.1972 0.926389
      vertex 8 -20.1972 -14.9264
    endloop
  endfacet
  facet normal -1 -0 0
    outer loop
      vertex 8 -20.1972 0.926389
      vertex 8 -21.25 -16.1811
      vertex 8 -21.25 2.18107
    endloop
  endfacet
  facet normal -1 0 0
    outer loop
      vertex 8 -16.6056 3
      vertex 8 -10 -35
      vertex 8 -16.6056 -17
    endloop
  endfacet
  facet normal -1 0 0
    outer loop
      vertex 8 -10 -35
      vertex 8 -17.1658 -18.5391
      vertex 8 -16.6056 -17
    endloop
  endfacet
  facet normal -1 0 0
    outer loop
      vertex 8 -10 -35
      vertex 8 -18.5842 -19.358
      vertex 8 -17.1658 -18.5391
    endloop
  endfacet
  facet normal -1 0 0
    outer loop
      vertex 8 -28 -35
      vertex 8 -18.5842 -19.358
      vertex 8 -10 -35
    endloop
  endfacet
  facet normal -1 -0 0
    outer loop
      vertex 8 -18.5842 -19.358
      vertex 8 -28 -35
      vertex 8 -20.1972 -19.0736
    endloop
  endfacet
  facet normal -1 0 0
    outer loop
      vertex 8 -28 -35
      vertex 8 -21.25 -16.1811
      vertex 8 -21.25 -17.8189
    endloop
  endfacet
  facet normal -1 -0 0
    outer loop
      vertex 8 -21.25 -16.1811
      vertex 8 -28 -35
      vertex 8 -21.25 2.18107
    endloop
  endfacet
  facet normal -1 -0 0
    outer loop
      vertex 8 -21.25 2.18107
      vertex 8 -28 -35
      vertex 8 -21.25 3.81893
    endloop
  endfacet
  facet normal -1 0 0
    outer loop
      vertex 8 -28 41
      vertex 8 -21.25 3.81893
      vertex 8 -28 -35
    endloop
  endfacet
  facet normal -1 0 0
    outer loop
      vertex 8 -21.25 3.81893
      vertex 8 -28 41
      vertex 8 -21.25 22.1811
    endloop
  endfacet
  facet normal -1 -0 0
    outer loop
      vertex 8 -20.1972 -19.0736
      vertex 8 -28 -35
      vertex 8 -21.25 -17.8189
    endloop
  endfacet
  facet normal -1 0 0
    outer loop
      vertex 8 -10 -35
      vertex 8 -16.6056 3
      vertex 8 -10 41
    endloop
  endfacet
  facet normal -1 0 0
    outer loop
      vertex 8 -16.6056 23
      vertex 8 -10 41
      vertex 8 -16.6056 3
    endloop
  endfacet
  facet normal -1 0 0
    outer loop
      vertex 8 -17.1658 24.5391
      vertex 8 -10 41
      vertex 8 -16.6056 23
    endloop
  endfacet
  facet normal -1 0 0
    outer loop
      vertex 8 -18.5842 25.358
      vertex 8 -10 41
      vertex 8 -17.1658 24.5391
    endloop
  endfacet
  facet normal -1 0 0
    outer loop
      vertex 8 -28 41
      vertex 8 -18.5842 25.358
      vertex 8 -20.1972 25.0736
    endloop
  endfacet
  facet normal -1 0 0
    outer loop
      vertex 8 -28 41
      vertex 8 -20.1972 25.0736
      vertex 8 -21.25 23.8189
    endloop
  endfacet
  facet normal -1 0 0
    outer loop
      vertex 8 -18.5842 25.358
      vertex 8 -28 41
      vertex 8 -10 41
    endloop
  endfacet
  facet normal -1 0 0
    outer loop
      vertex 8 -21.25 22.1811
      vertex 8 -28 41
      vertex 8 -21.25 23.8189
    endloop
  endfacet
  facet normal 0 -1 0
    outer loop
      vertex 8 -28 -35
      vertex 10 -28 41
      vertex 8 -28 41
    endloop
  endfacet
  facet normal 0 -1 -0
    outer loop
      vertex 10 -28 41
      vertex 8 -28 -35
      vertex 10 -28 -35
    endloop
  endfacet
  facet normal 0 -1 0
    outer loop
      vertex -10 -28 -35
      vertex -8 -28 41
      vertex -10 -28 41
    endloop
  endfacet
  facet normal 0 -1 -0
    outer loop
      vertex -8 -28 41
      vertex -10 -28 -35
      vertex -8 -28 -35
    endloop
  endfacet
  facet normal 1 -0 0
    outer loop
      vertex -8 -19.1658 1.46091
      vertex -8 -18.6056 -17
      vertex -8 -18.6056 3
    endloop
  endfacet
  facet normal 1 0 0
    outer loop
      vertex -8 -19.1658 1.46091
      vertex -8 -19.1658 -15.4609
      vertex -8 -18.6056 -17
    endloop
  endfacet
  facet normal 1 -0 0
    outer loop
      vertex -8 -20.5842 0.641975
      vertex -8 -19.1658 -15.4609
      vertex -8 -19.1658 1.46091
    endloop
  endfacet
  facet normal 1 0 0
    outer loop
      vertex -8 -20.5842 0.641975
      vertex -8 -20.5842 -14.642
      vertex -8 -19.1658 -15.4609
    endloop
  endfacet
  facet normal 1 0 0
    outer loop
      vertex -8 -22.1972 0.926389
      vertex -8 -20.5842 -14.642
      vertex -8 -20.5842 0.641975
    endloop
  endfacet
  facet normal 1 0 0
    outer loop
      vertex -8 -22.1972 0.926389
      vertex -8 -22.1972 -14.9264
      vertex -8 -20.5842 -14.642
    endloop
  endfacet
  facet normal 1 0 0
    outer loop
      vertex -8 -23.25 2.18107
      vertex -8 -22.1972 -14.9264
      vertex -8 -22.1972 0.926389
    endloop
  endfacet
  facet normal 1 0 0
    outer loop
      vertex -8 -22.1972 -14.9264
      vertex -8 -23.25 2.18107
      vertex -8 -23.25 -16.1811
    endloop
  endfacet
  facet normal 1 0 0
    outer loop
      vertex -8 -10 41
      vertex -8 -18.6056 3
      vertex -8 -10 -35
    endloop
  endfacet
  facet normal 1 0 0
    outer loop
      vertex -8 -10 41
      vertex -8 -18.6056 23
      vertex -8 -18.6056 3
    endloop
  endfacet
  facet normal 1 0 0
    outer loop
      vertex -8 -10 41
      vertex -8 -19.1658 24.5391
      vertex -8 -18.6056 23
    endloop
  endfacet
  facet normal 1 0 0
    outer loop
      vertex -8 -10 41
      vertex -8 -20.5842 25.358
      vertex -8 -19.1658 24.5391
    endloop
  endfacet
  facet normal 1 -0 0
    outer loop
      vertex -8 -28 41
      vertex -8 -20.5842 25.358
      vertex -8 -10 41
    endloop
  endfacet
  facet normal 1 0 0
    outer loop
      vertex -8 -20.5842 25.358
      vertex -8 -28 41
      vertex -8 -22.1972 25.0736
    endloop
  endfacet
  facet normal 1 0 0
    outer loop
      vertex -8 -28 41
      vertex -8 -23.25 22.1811
      vertex -8 -23.25 23.8189
    endloop
  endfacet
  facet normal 1 0 0
    outer loop
      vertex -8 -23.25 22.1811
      vertex -8 -28 41
      vertex -8 -23.25 3.81893
    endloop
  endfacet
  facet normal 1 0 0
    outer loop
      vertex -8 -23.25 3.81893
      vertex -8 -28 41
      vertex -8 -23.25 2.18107
    endloop
  endfacet
  facet normal 1 0 0
    outer loop
      vertex -8 -28 -35
      vertex -8 -23.25 2.18107
      vertex -8 -28 41
    endloop
  endfacet
  facet normal 1 0 0
    outer loop
      vertex -8 -23.25 2.18107
      vertex -8 -28 -35
      vertex -8 -23.25 -16.1811
    endloop
  endfacet
  facet normal 1 0 0
    outer loop
      vertex -8 -22.1972 25.0736
      vertex -8 -28 41
      vertex -8 -23.25 23.8189
    endloop
  endfacet
  facet normal 1 -0 0
    outer loop
      vertex -8 -18.6056 -17
      vertex -8 -10 -35
      vertex -8 -18.6056 3
    endloop
  endfacet
  facet normal 1 -0 0
    outer loop
      vertex -8 -19.1658 -18.5391
      vertex -8 -10 -35
      vertex -8 -18.6056 -17
    endloop
  endfacet
  facet normal 1 -0 0
    outer loop
      vertex -8 -20.5842 -19.358
      vertex -8 -10 -35
      vertex -8 -19.1658 -18.5391
    endloop
  endfacet
  facet normal 1 0 0
    outer loop
      vertex -8 -28 -35
      vertex -8 -20.5842 -19.358
      vertex -8 -22.1972 -19.0736
    endloop
  endfacet
  facet normal 1 0 0
    outer loop
      vertex -8 -28 -35
      vertex -8 -22.1972 -19.0736
      vertex -8 -23.25 -17.8189
    endloop
  endfacet
  facet normal 1 0 0
    outer loop
      vertex -8 -20.5842 -19.358
      vertex -8 -28 -35
      vertex -8 -10 -35
    endloop
  endfacet
  facet normal 1 0 0
    outer loop
      vertex -8 -23.25 -16.1811
      vertex -8 -28 -35
      vertex -8 -23.25 -17.8189
    endloop
  endfacet
  facet normal 1 -0 0
    outer loop
      vertex -8 -19.1658 21.4609
      vertex -8 -18.6056 3
      vertex -8 -18.6056 23
    endloop
  endfacet
  facet normal 1 0 0
    outer loop
      vertex -8 -19.1658 21.4609
      vertex -8 -19.1658 4.53909
      vertex -8 -18.6056 3
    endloop
  endfacet
  facet normal 1 -0 0
    outer loop
      vertex -8 -20.5842 20.642
      vertex -8 -19.1658 4.53909
      vertex -8 -19.1658 21.4609
    endloop
  endfacet
  facet normal 1 0 0
    outer loop
      vertex -8 -20.5842 20.642
      vertex -8 -20.5842 5.35802
      vertex -8 -19.1658 4.53909
    endloop
  endfacet
  facet normal 1 0 0
    outer loop
      vertex -8 -22.1972 20.9264
      vertex -8 -20.5842 5.35802
      vertex -8 -20.5842 20.642
    endloop
  endfacet
  facet normal 1 0 0
    outer loop
      vertex -8 -22.1972 20.9264
      vertex -8 -22.1972 5.07361
      vertex -8 -20.5842 5.35802
    endloop
  endfacet
  facet normal 1 0 0
    outer loop
      vertex -8 -23.25 22.1811
      vertex -8 -22.1972 5.07361
      vertex -8 -22.1972 20.9264
    endloop
  endfacet
  facet normal 1 0 0
    outer loop
      vertex -8 -22.1972 5.07361
      vertex -8 -23.25 22.1811
      vertex -8 -23.25 3.81893
    endloop
  endfacet
  facet normal 0 1 -0
    outer loop
      vertex 10 11 -35
      vertex 6.5 11 41
      vertex 10 11 41
    endloop
  endfacet
  facet normal 0 1 0
    outer loop
      vertex 6.5 11 41
      vertex 10 11 -35
      vertex 6.5 11 -35
    endloop
  endfacet
  facet normal 0 1 -0
    outer loop
      vertex -6.5 11 -35
      vertex -10 11 41
      vertex -6.5 11 41
    endloop
  endfacet
  facet normal 0 1 0
    outer loop
      vertex -10 11 41
      vertex -6.5 11 -35
      vertex -10 11 -35
    endloop
  endfacet
  facet normal -0.866025 0 -0.5
    outer loop
      vertex 1.875 -9 3
      vertex 0.9375 -7.5 4.6238
      vertex 1.875 -7.5 3
    endloop
  endfacet
  facet normal -0.866025 -0 -0.5
    outer loop
      vertex 0.9375 -7.5 4.6238
      vertex 1.875 -9 3
      vertex 0.9375 -9 4.6238
    endloop
  endfacet
  facet normal -0 0 1
    outer loop
      vertex -0.9375 -7.5 1.3762
      vertex 0.9375 -9 1.3762
      vertex 0.9375 -7.5 1.3762
    endloop
  endfacet
  facet normal 0 0 1
    outer loop
      vertex 0.9375 -9 1.3762
      vertex -0.9375 -7.5 1.3762
      vertex -0.9375 -9 1.3762
    endloop
  endfacet
  facet normal 0.866025 0 -0.5
    outer loop
      vertex -0.937499 -9 4.6238
      vertex -1.875 -7.5 3
      vertex -0.937499 -7.5 4.6238
    endloop
  endfacet
  facet normal 0.866025 0 -0.5
    outer loop
      vertex -1.875 -7.5 3
      vertex -0.937499 -9 4.6238
      vertex -1.875 -9 3
    endloop
  endfacet
  facet normal 0 0 -1
    outer loop
      vertex -0.937499 -9 4.6238
      vertex 0.9375 -7.5 4.6238
      vertex 0.9375 -9 4.6238
    endloop
  endfacet
  facet normal -0 0 -1
    outer loop
      vertex 0.9375 -7.5 4.6238
      vertex -0.937499 -9 4.6238
      vertex -0.937499 -7.5 4.6238
    endloop
  endfacet
  facet normal 0.866026 -0 0.5
    outer loop
      vertex -1.875 -9 3
      vertex -0.9375 -7.5 1.3762
      vertex -1.875 -7.5 3
    endloop
  endfacet
  facet normal 0.866026 0 0.5
    outer loop
      vertex -0.9375 -7.5 1.3762
      vertex -1.875 -9 3
      vertex -0.9375 -9 1.3762
    endloop
  endfacet
  facet normal -0.866026 0 0.5
    outer loop
      vertex 0.9375 -9 1.3762
      vertex 1.875 -7.5 3
      vertex 0.9375 -7.5 1.3762
    endloop
  endfacet
  facet normal -0.866026 0 0.5
    outer loop
      vertex 1.875 -7.5 3
      vertex 0.9375 -9 1.3762
      vertex 1.875 -9 3
    endloop
  endfacet
  facet normal -0.951056 0 -0.309017
    outer loop
      vertex 3.125 -10 3
      vertex 2.52818 -9 4.83683
      vertex 3.125 -9 3
    endloop
  endfacet
  facet normal -0.951056 -0 -0.309017
    outer loop
      vertex 2.52818 -9 4.83683
      vertex 3.125 -10 3
      vertex 2.52818 -10 4.83683
    endloop
  endfacet
  facet normal 0.587785 0 -0.809017
    outer loop
      vertex -2.52818 -10 4.83683
      vertex -0.965677 -9 5.97205
      vertex -0.965677 -10 5.97205
    endloop
  endfacet
  facet normal 0.587785 0 -0.809017
    outer loop
      vertex -0.965677 -9 5.97205
      vertex -2.52818 -10 4.83683
      vertex -2.52818 -9 4.83683
    endloop
  endfacet
  facet normal -0.587785 0 -0.809017
    outer loop
      vertex 0.965677 -10 5.97205
      vertex 2.52818 -9 4.83683
      vertex 2.52818 -10 4.83683
    endloop
  endfacet
  facet normal -0.587785 0 -0.809017
    outer loop
      vertex 2.52818 -9 4.83683
      vertex 0.965677 -10 5.97205
      vertex 0.965677 -9 5.97205
    endloop
  endfacet
  facet normal 0.951056 0 -0.309017
    outer loop
      vertex -2.52818 -10 4.83683
      vertex -3.125 -9 3
      vertex -2.52818 -9 4.83683
    endloop
  endfacet
  facet normal 0.951056 0 -0.309017
    outer loop
      vertex -3.125 -9 3
      vertex -2.52818 -10 4.83683
      vertex -3.125 -10 3
    endloop
  endfacet
  facet normal 0 -1 0
    outer loop
      vertex -0.937499 -9 4.6238
      vertex -0.965677 -9 5.97205
      vertex -2.52818 -9 4.83683
    endloop
  endfacet
  facet normal 0 -1 0
    outer loop
      vertex -0.965677 -9 5.97205
      vertex -0.937499 -9 4.6238
      vertex 0.965677 -9 5.97205
    endloop
  endfacet
  facet normal 0 -1 0
    outer loop
      vertex 0.9375 -9 4.6238
      vertex 0.965677 -9 5.97205
      vertex -0.937499 -9 4.6238
    endloop
  endfacet
  facet normal 0 -1 0
    outer loop
      vertex -1.875 -9 3
      vertex -2.52818 -9 4.83683
      vertex -3.125 -9 3
    endloop
  endfacet
  facet normal 0 -1 0
    outer loop
      vertex -2.52818 -9 4.83683
      vertex -1.875 -9 3
      vertex -0.937499 -9 4.6238
    endloop
  endfacet
  facet normal 0 -1 0
    outer loop
      vertex -2.52818 -9 1.16317
      vertex -1.875 -9 3
      vertex -3.125 -9 3
    endloop
  endfacet
  facet normal 0 -1 0
    outer loop
      vertex -0.965677 -9 0.0279484
      vertex -0.9375 -9 1.3762
      vertex -2.52818 -9 1.16317
    endloop
  endfacet
  facet normal 0 -1 -0
    outer loop
      vertex -1.875 -9 3
      vertex -2.52818 -9 1.16317
      vertex -0.9375 -9 1.3762
    endloop
  endfacet
  facet normal 0 -1 -0
    outer loop
      vertex 0.965677 -9 5.97205
      vertex 0.9375 -9 4.6238
      vertex 2.52818 -9 4.83683
    endloop
  endfacet
  facet normal 0 -1 0
    outer loop
      vertex 1.875 -9 3
      vertex 2.52818 -9 4.83683
      vertex 0.9375 -9 4.6238
    endloop
  endfacet
  facet normal 0 -1 0
    outer loop
      vertex 1.875 -9 3
      vertex 3.125 -9 3
      vertex 2.52818 -9 4.83683
    endloop
  endfacet
  facet normal 0 -1 0
    outer loop
      vertex 2.52818 -9 1.16317
      vertex 1.875 -9 3
      vertex 0.9375 -9 1.3762
    endloop
  endfacet
  facet normal 0 -1 0
    outer loop
      vertex 1.875 -9 3
      vertex 2.52818 -9 1.16317
      vertex 3.125 -9 3
    endloop
  endfacet
  facet normal 0 -1 -0
    outer loop
      vertex -0.9375 -9 1.3762
      vertex -0.965677 -9 0.0279484
      vertex 0.9375 -9 1.3762
    endloop
  endfacet
  facet normal 0 -1 0
    outer loop
      vertex 0.965677 -9 0.0279484
      vertex 0.9375 -9 1.3762
      vertex -0.965677 -9 0.0279484
    endloop
  endfacet
  facet normal 0 -1 0
    outer loop
      vertex 0.9375 -9 1.3762
      vertex 0.965677 -9 0.0279484
      vertex 2.52818 -9 1.16317
    endloop
  endfacet
  facet normal -0.951056 0 0.309017
    outer loop
      vertex 2.52818 -10 1.16317
      vertex 3.125 -9 3
      vertex 2.52818 -9 1.16317
    endloop
  endfacet
  facet normal -0.951056 0 0.309017
    outer loop
      vertex 3.125 -9 3
      vertex 2.52818 -10 1.16317
      vertex 3.125 -10 3
    endloop
  endfacet
  facet normal 0 0 -1
    outer loop
      vertex -0.965677 -10 5.97205
      vertex 0.965677 -9 5.97205
      vertex 0.965677 -10 5.97205
    endloop
  endfacet
  facet normal -0 0 -1
    outer loop
      vertex 0.965677 -9 5.97205
      vertex -0.965677 -10 5.97205
      vertex -0.965677 -9 5.97205
    endloop
  endfacet
  facet normal 0.951056 -0 0.309017
    outer loop
      vertex -3.125 -10 3
      vertex -2.52818 -9 1.16317
      vertex -3.125 -9 3
    endloop
  endfacet
  facet normal 0.951056 0 0.309017
    outer loop
      vertex -2.52818 -9 1.16317
      vertex -3.125 -10 3
      vertex -2.52818 -10 1.16317
    endloop
  endfacet
  facet normal 0.587785 0 0.809017
    outer loop
      vertex -2.52818 -9 1.16317
      vertex -0.965677 -10 0.0279484
      vertex -0.965677 -9 0.0279484
    endloop
  endfacet
  facet normal 0.587785 0 0.809017
    outer loop
      vertex -0.965677 -10 0.0279484
      vertex -2.52818 -9 1.16317
      vertex -2.52818 -10 1.16317
    endloop
  endfacet
  facet normal -0.587785 0 0.809017
    outer loop
      vertex 0.965677 -9 0.0279484
      vertex 2.52818 -10 1.16317
      vertex 2.52818 -9 1.16317
    endloop
  endfacet
  facet normal -0.587785 0 0.809017
    outer loop
      vertex 2.52818 -10 1.16317
      vertex 0.965677 -9 0.0279484
      vertex 0.965677 -10 0.0279484
    endloop
  endfacet
  facet normal -0 0 1
    outer loop
      vertex -0.965677 -9 0.0279484
      vertex 0.965677 -10 0.0279484
      vertex 0.965677 -9 0.0279484
    endloop
  endfacet
  facet normal 0 0 1
    outer loop
      vertex 0.965677 -10 0.0279484
      vertex -0.965677 -9 0.0279484
      vertex -0.965677 -10 0.0279484
    endloop
  endfacet
  facet normal 0 -0.939692 0.342021
    outer loop
      vertex 8 -17.1658 -18.5391
      vertex 10 -16.6056 -17
      vertex 8 -16.6056 -17
    endloop
  endfacet
  facet normal 0 -0.939692 0.342021
    outer loop
      vertex 10 -16.6056 -17
      vertex 8 -17.1658 -18.5391
      vertex 10 -17.1658 -18.5391
    endloop
  endfacet
  facet normal 0 -0.500001 0.866025
    outer loop
      vertex 8 -17.1658 -18.5391
      vertex 10 -18.5842 -19.358
      vertex 10 -17.1658 -18.5391
    endloop
  endfacet
  facet normal 0 -0.500001 0.866025
    outer loop
      vertex 10 -18.5842 -19.358
      vertex 8 -17.1658 -18.5391
      vertex 8 -18.5842 -19.358
    endloop
  endfacet
  facet normal 0 0.766044 0.642788
    outer loop
      vertex 10 -20.1972 -19.0736
      vertex 8 -21.25 -17.8189
      vertex 10 -21.25 -17.8189
    endloop
  endfacet
  facet normal 0 0.766044 0.642788
    outer loop
      vertex 8 -21.25 -17.8189
      vertex 10 -20.1972 -19.0736
      vertex 8 -20.1972 -19.0736
    endloop
  endfacet
  facet normal 0 0.173649 -0.984808
    outer loop
      vertex 8 -20.1972 -14.9264
      vertex 10 -18.5842 -14.642
      vertex 10 -20.1972 -14.9264
    endloop
  endfacet
  facet normal 0 0.173649 -0.984808
    outer loop
      vertex 10 -18.5842 -14.642
      vertex 8 -20.1972 -14.9264
      vertex 8 -18.5842 -14.642
    endloop
  endfacet
  facet normal 0 -0.500001 -0.866025
    outer loop
      vertex 8 -18.5842 -14.642
      vertex 10 -17.1658 -15.4609
      vertex 10 -18.5842 -14.642
    endloop
  endfacet
  facet normal -0 -0.500001 -0.866025
    outer loop
      vertex 10 -17.1658 -15.4609
      vertex 8 -18.5842 -14.642
      vertex 8 -17.1658 -15.4609
    endloop
  endfacet
  facet normal 0 0.766044 -0.642788
    outer loop
      vertex 10 -21.25 -16.1811
      vertex 8 -20.1972 -14.9264
      vertex 10 -20.1972 -14.9264
    endloop
  endfacet
  facet normal 0 0.766044 -0.642788
    outer loop
      vertex 8 -20.1972 -14.9264
      vertex 10 -21.25 -16.1811
      vertex 8 -21.25 -16.1811
    endloop
  endfacet
  facet normal -0 0.173648 0.984808
    outer loop
      vertex 8 -18.5842 -19.358
      vertex 10 -20.1972 -19.0736
      vertex 10 -18.5842 -19.358
    endloop
  endfacet
  facet normal 0 0.173648 0.984808
    outer loop
      vertex 10 -20.1972 -19.0736
      vertex 8 -18.5842 -19.358
      vertex 8 -20.1972 -19.0736
    endloop
  endfacet
  facet normal 0 1 -0
    outer loop
      vertex 10 -21.25 -17.8189
      vertex 8 -21.25 -16.1811
      vertex 10 -21.25 -16.1811
    endloop
  endfacet
  facet normal 0 1 0
    outer loop
      vertex 8 -21.25 -16.1811
      vertex 10 -21.25 -17.8189
      vertex 8 -21.25 -17.8189
    endloop
  endfacet
  facet normal 0 -0.939692 -0.342021
    outer loop
      vertex 8 -16.6056 -17
      vertex 10 -17.1658 -15.4609
      vertex 8 -17.1658 -15.4609
    endloop
  endfacet
  facet normal 0 -0.939692 -0.342021
    outer loop
      vertex 10 -17.1658 -15.4609
      vertex 8 -16.6056 -17
      vertex 10 -16.6056 -17
    endloop
  endfacet
  facet normal 0 -0.939692 0.342021
    outer loop
      vertex -10 -19.1658 -18.5391
      vertex -8 -18.6056 -17
      vertex -10 -18.6056 -17
    endloop
  endfacet
  facet normal 0 -0.939692 0.342021
    outer loop
      vertex -8 -18.6056 -17
      vertex -10 -19.1658 -18.5391
      vertex -8 -19.1658 -18.5391
    endloop
  endfacet
  facet normal 0 -0.500001 0.866025
    outer loop
      vertex -10 -19.1658 -18.5391
      vertex -8 -20.5842 -19.358
      vertex -8 -19.1658 -18.5391
    endloop
  endfacet
  facet normal 0 -0.500001 0.866025
    outer loop
      vertex -8 -20.5842 -19.358
      vertex -10 -19.1658 -18.5391
      vertex -10 -20.5842 -19.358
    endloop
  endfacet
  facet normal 0 0.766044 0.642788
    outer loop
      vertex -8 -22.1972 -19.0736
      vertex -10 -23.25 -17.8189
      vertex -8 -23.25 -17.8189
    endloop
  endfacet
  facet normal 0 0.766044 0.642788
    outer loop
      vertex -10 -23.25 -17.8189
      vertex -8 -22.1972 -19.0736
      vertex -10 -22.1972 -19.0736
    endloop
  endfacet
  facet normal 0 0.173649 -0.984808
    outer loop
      vertex -10 -22.1972 -14.9264
      vertex -8 -20.5842 -14.642
      vertex -8 -22.1972 -14.9264
    endloop
  endfacet
  facet normal 0 0.173649 -0.984808
    outer loop
      vertex -8 -20.5842 -14.642
      vertex -10 -22.1972 -14.9264
      vertex -10 -20.5842 -14.642
    endloop
  endfacet
  facet normal 0 -0.500001 -0.866025
    outer loop
      vertex -10 -20.5842 -14.642
      vertex -8 -19.1658 -15.4609
      vertex -8 -20.5842 -14.642
    endloop
  endfacet
  facet normal -0 -0.500001 -0.866025
    outer loop
      vertex -8 -19.1658 -15.4609
      vertex -10 -20.5842 -14.642
      vertex -10 -19.1658 -15.4609
    endloop
  endfacet
  facet normal 0 0.766044 -0.642788
    outer loop
      vertex -8 -23.25 -16.1811
      vertex -10 -22.1972 -14.9264
      vertex -8 -22.1972 -14.9264
    endloop
  endfacet
  facet normal 0 0.766044 -0.642788
    outer loop
      vertex -10 -22.1972 -14.9264
      vertex -8 -23.25 -16.1811
      vertex -10 -23.25 -16.1811
    endloop
  endfacet
  facet normal -0 0.173648 0.984808
    outer loop
      vertex -10 -20.5842 -19.358
      vertex -8 -22.1972 -19.0736
      vertex -8 -20.5842 -19.358
    endloop
  endfacet
  facet normal 0 0.173648 0.984808
    outer loop
      vertex -8 -22.1972 -19.0736
      vertex -10 -20.5842 -19.358
      vertex -10 -22.1972 -19.0736
    endloop
  endfacet
  facet normal 0 1 -0
    outer loop
      vertex -8 -23.25 -17.8189
      vertex -10 -23.25 -16.1811
      vertex -8 -23.25 -16.1811
    endloop
  endfacet
  facet normal 0 1 0
    outer loop
      vertex -10 -23.25 -16.1811
      vertex -8 -23.25 -17.8189
      vertex -10 -23.25 -17.8189
    endloop
  endfacet
  facet normal 0 -0.939692 -0.342021
    outer loop
      vertex -10 -18.6056 -17
      vertex -8 -19.1658 -15.4609
      vertex -10 -19.1658 -15.4609
    endloop
  endfacet
  facet normal 0 -0.939692 -0.342021
    outer loop
      vertex -8 -19.1658 -15.4609
      vertex -10 -18.6056 -17
      vertex -8 -18.6056 -17
    endloop
  endfacet
  facet normal 0 -0.939692 0.342021
    outer loop
      vertex 8 -17.1658 1.46091
      vertex 10 -16.6056 3
      vertex 8 -16.6056 3
    endloop
  endfacet
  facet normal 0 -0.939692 0.342021
    outer loop
      vertex 10 -16.6056 3
      vertex 8 -17.1658 1.46091
      vertex 10 -17.1658 1.46091
    endloop
  endfacet
  facet normal 0 -0.5 0.866025
    outer loop
      vertex 8 -17.1658 1.46091
      vertex 10 -18.5842 0.641975
      vertex 10 -17.1658 1.46091
    endloop
  endfacet
  facet normal 0 -0.5 0.866025
    outer loop
      vertex 10 -18.5842 0.641975
      vertex 8 -17.1658 1.46091
      vertex 8 -18.5842 0.641975
    endloop
  endfacet
  facet normal 0 0.766045 0.642787
    outer loop
      vertex 10 -20.1972 0.926389
      vertex 8 -21.25 2.18107
      vertex 10 -21.25 2.18107
    endloop
  endfacet
  facet normal 0 0.766045 0.642787
    outer loop
      vertex 8 -21.25 2.18107
      vertex 10 -20.1972 0.926389
      vertex 8 -20.1972 0.926389
    endloop
  endfacet
  facet normal 0 0.173649 -0.984808
    outer loop
      vertex 8 -20.1972 5.07361
      vertex 10 -18.5842 5.35802
      vertex 10 -20.1972 5.07361
    endloop
  endfacet
  facet normal 0 0.173649 -0.984808
    outer loop
      vertex 10 -18.5842 5.35802
      vertex 8 -20.1972 5.07361
      vertex 8 -18.5842 5.35802
    endloop
  endfacet
  facet normal 0 -0.5 -0.866025
    outer loop
      vertex 8 -18.5842 5.35802
      vertex 10 -17.1658 4.53909
      vertex 10 -18.5842 5.35802
    endloop
  endfacet
  facet normal -0 -0.5 -0.866025
    outer loop
      vertex 10 -17.1658 4.53909
      vertex 8 -18.5842 5.35802
      vertex 8 -17.1658 4.53909
    endloop
  endfacet
  facet normal 0 0.766045 -0.642787
    outer loop
      vertex 10 -21.25 3.81893
      vertex 8 -20.1972 5.07361
      vertex 10 -20.1972 5.07361
    endloop
  endfacet
  facet normal 0 0.766045 -0.642787
    outer loop
      vertex 8 -20.1972 5.07361
      vertex 10 -21.25 3.81893
      vertex 8 -21.25 3.81893
    endloop
  endfacet
  facet normal -0 0.173649 0.984808
    outer loop
      vertex 8 -18.5842 0.641975
      vertex 10 -20.1972 0.926389
      vertex 10 -18.5842 0.641975
    endloop
  endfacet
  facet normal 0 0.173649 0.984808
    outer loop
      vertex 10 -20.1972 0.926389
      vertex 8 -18.5842 0.641975
      vertex 8 -20.1972 0.926389
    endloop
  endfacet
  facet normal 0 1 -0
    outer loop
      vertex 10 -21.25 2.18107
      vertex 8 -21.25 3.81893
      vertex 10 -21.25 3.81893
    endloop
  endfacet
  facet normal 0 1 0
    outer loop
      vertex 8 -21.25 3.81893
      vertex 10 -21.25 2.18107
      vertex 8 -21.25 2.18107
    endloop
  endfacet
  facet normal 0 -0.939692 -0.342021
    outer loop
      vertex 8 -16.6056 3
      vertex 10 -17.1658 4.53909
      vertex 8 -17.1658 4.53909
    endloop
  endfacet
  facet normal 0 -0.939692 -0.342021
    outer loop
      vertex 10 -17.1658 4.53909
      vertex 8 -16.6056 3
      vertex 10 -16.6056 3
    endloop
  endfacet
  facet normal 0 -0.939692 0.342021
    outer loop
      vertex -10 -19.1658 1.46091
      vertex -8 -18.6056 3
      vertex -10 -18.6056 3
    endloop
  endfacet
  facet normal 0 -0.939692 0.342021
    outer loop
      vertex -8 -18.6056 3
      vertex -10 -19.1658 1.46091
      vertex -8 -19.1658 1.46091
    endloop
  endfacet
  facet normal 0 -0.500001 0.866025
    outer loop
      vertex -10 -19.1658 1.46091
      vertex -8 -20.5842 0.641975
      vertex -8 -19.1658 1.46091
    endloop
  endfacet
  facet normal 0 -0.500001 0.866025
    outer loop
      vertex -8 -20.5842 0.641975
      vertex -10 -19.1658 1.46091
      vertex -10 -20.5842 0.641975
    endloop
  endfacet
  facet normal 0 0.766044 0.642788
    outer loop
      vertex -8 -22.1972 0.926389
      vertex -10 -23.25 2.18107
      vertex -8 -23.25 2.18107
    endloop
  endfacet
  facet normal 0 0.766044 0.642788
    outer loop
      vertex -10 -23.25 2.18107
      vertex -8 -22.1972 0.926389
      vertex -10 -22.1972 0.926389
    endloop
  endfacet
  facet normal 1.65604e-07 0.173649 -0.984808
    outer loop
      vertex -10 -22.1972 5.07361
      vertex -8 -20.5842 5.35802
      vertex -8 -22.1972 5.07361
    endloop
  endfacet
  facet normal 1.65604e-07 0.173649 -0.984808
    outer loop
      vertex -8 -20.5842 5.35802
      vertex -10 -22.1972 5.07361
      vertex -10 -20.5842 5.35802
    endloop
  endfacet
  facet normal -4.76837e-07 -0.5 -0.866025
    outer loop
      vertex -10 -20.5842 5.35802
      vertex -8 -19.1658 4.53909
      vertex -8 -20.5842 5.35802
    endloop
  endfacet
  facet normal -0 -0.500001 -0.866025
    outer loop
      vertex -8 -19.1658 4.53909
      vertex -10 -20.5842 5.35802
      vertex -10 -19.1658 4.53909
    endloop
  endfacet
  facet normal 7.30557e-07 0.766045 -0.642787
    outer loop
      vertex -8 -23.25 3.81893
      vertex -10 -22.1972 5.07361
      vertex -8 -22.1972 5.07361
    endloop
  endfacet
  facet normal 0 0.766044 -0.642788
    outer loop
      vertex -10 -22.1972 5.07361
      vertex -8 -23.25 3.81893
      vertex -10 -23.25 3.81893
    endloop
  endfacet
  facet normal -0 0.173649 0.984808
    outer loop
      vertex -10 -20.5842 0.641975
      vertex -8 -22.1972 0.926389
      vertex -8 -20.5842 0.641975
    endloop
  endfacet
  facet normal 0 0.173649 0.984808
    outer loop
      vertex -8 -22.1972 0.926389
      vertex -10 -20.5842 0.641975
      vertex -10 -22.1972 0.926389
    endloop
  endfacet
  facet normal 0 1 -0
    outer loop
      vertex -8 -23.25 2.18107
      vertex -10 -23.25 3.81893
      vertex -8 -23.25 3.81893
    endloop
  endfacet
  facet normal 0 1 0
    outer loop
      vertex -10 -23.25 3.81893
      vertex -8 -23.25 2.18107
      vertex -10 -23.25 2.18107
    endloop
  endfacet
  facet normal 0 -0.939692 -0.342021
    outer loop
      vertex -10 -18.6056 3
      vertex -8 -19.1658 4.53909
      vertex -10 -19.1658 4.53909
    endloop
  endfacet
  facet normal 0 -0.939692 -0.342021
    outer loop
      vertex -8 -19.1658 4.53909
      vertex -10 -18.6056 3
      vertex -8 -18.6056 3
    endloop
  endfacet
  facet normal 0 -0.939693 0.34202
    outer loop
      vertex 8 -17.1658 21.4609
      vertex 10 -16.6056 23
      vertex 8 -16.6056 23
    endloop
  endfacet
  facet normal 0 -0.939693 0.34202
    outer loop
      vertex 10 -16.6056 23
      vertex 8 -17.1658 21.4609
      vertex 10 -17.1658 21.4609
    endloop
  endfacet
  facet normal 0 -0.5 0.866025
    outer loop
      vertex 8 -17.1658 21.4609
      vertex 10 -18.5842 20.642
      vertex 10 -17.1658 21.4609
    endloop
  endfacet
  facet normal 0 -0.5 0.866025
    outer loop
      vertex 10 -18.5842 20.642
      vertex 8 -17.1658 21.4609
      vertex 8 -18.5842 20.642
    endloop
  endfacet
  facet normal 0 0.766045 0.642787
    outer loop
      vertex 10 -20.1972 20.9264
      vertex 8 -21.25 22.1811
      vertex 10 -21.25 22.1811
    endloop
  endfacet
  facet normal 0 0.766045 0.642787
    outer loop
      vertex 8 -21.25 22.1811
      vertex 10 -20.1972 20.9264
      vertex 8 -20.1972 20.9264
    endloop
  endfacet
  facet normal 0 0.173648 -0.984808
    outer loop
      vertex 8 -20.1972 25.0736
      vertex 10 -18.5842 25.358
      vertex 10 -20.1972 25.0736
    endloop
  endfacet
  facet normal 0 0.173648 -0.984808
    outer loop
      vertex 10 -18.5842 25.358
      vertex 8 -20.1972 25.0736
      vertex 8 -18.5842 25.358
    endloop
  endfacet
  facet normal 0 0.766045 -0.642787
    outer loop
      vertex 10 -21.25 23.8189
      vertex 8 -20.1972 25.0736
      vertex 10 -20.1972 25.0736
    endloop
  endfacet
  facet normal 0 0.766045 -0.642787
    outer loop
      vertex 8 -20.1972 25.0736
      vertex 10 -21.25 23.8189
      vertex 8 -21.25 23.8189
    endloop
  endfacet
  facet normal -0 0.173648 0.984808
    outer loop
      vertex 8 -18.5842 20.642
      vertex 10 -20.1972 20.9264
      vertex 10 -18.5842 20.642
    endloop
  endfacet
  facet normal 0 0.173648 0.984808
    outer loop
      vertex 10 -20.1972 20.9264
      vertex 8 -18.5842 20.642
      vertex 8 -20.1972 20.9264
    endloop
  endfacet
  facet normal 0 1 -0
    outer loop
      vertex 10 -21.25 22.1811
      vertex 8 -21.25 23.8189
      vertex 10 -21.25 23.8189
    endloop
  endfacet
  facet normal 0 1 0
    outer loop
      vertex 8 -21.25 23.8189
      vertex 10 -21.25 22.1811
      vertex 8 -21.25 22.1811
    endloop
  endfacet
  facet normal 0 -0.939693 -0.34202
    outer loop
      vertex 8 -16.6056 23
      vertex 10 -17.1658 24.5391
      vertex 8 -17.1658 24.5391
    endloop
  endfacet
  facet normal 0 -0.939693 -0.34202
    outer loop
      vertex 10 -17.1658 24.5391
      vertex 8 -16.6056 23
      vertex 10 -16.6056 23
    endloop
  endfacet
  facet normal 0 -0.5 -0.866025
    outer loop
      vertex 8 -18.5842 25.358
      vertex 10 -17.1658 24.5391
      vertex 10 -18.5842 25.358
    endloop
  endfacet
  facet normal -0 -0.5 -0.866025
    outer loop
      vertex 10 -17.1658 24.5391
      vertex 8 -18.5842 25.358
      vertex 8 -17.1658 24.5391
    endloop
  endfacet
  facet normal 0 -0.939693 0.34202
    outer loop
      vertex -10 -19.1658 21.4609
      vertex -8 -18.6056 23
      vertex -10 -18.6056 23
    endloop
  endfacet
  facet normal 0 -0.939693 0.34202
    outer loop
      vertex -8 -18.6056 23
      vertex -10 -19.1658 21.4609
      vertex -8 -19.1658 21.4609
    endloop
  endfacet
  facet normal 0 -0.5 0.866025
    outer loop
      vertex -10 -19.1658 21.4609
      vertex -8 -20.5842 20.642
      vertex -8 -19.1658 21.4609
    endloop
  endfacet
  facet normal 0 -0.5 0.866025
    outer loop
      vertex -8 -20.5842 20.642
      vertex -10 -19.1658 21.4609
      vertex -10 -20.5842 20.642
    endloop
  endfacet
  facet normal 0 0.766045 0.642787
    outer loop
      vertex -8 -22.1972 20.9264
      vertex -10 -23.25 22.1811
      vertex -8 -23.25 22.1811
    endloop
  endfacet
  facet normal 0 0.766045 0.642787
    outer loop
      vertex -10 -23.25 22.1811
      vertex -8 -22.1972 20.9264
      vertex -10 -22.1972 20.9264
    endloop
  endfacet
  facet normal 0 0.173648 -0.984808
    outer loop
      vertex -10 -22.1972 25.0736
      vertex -8 -20.5842 25.358
      vertex -8 -22.1972 25.0736
    endloop
  endfacet
  facet normal 0 0.173648 -0.984808
    outer loop
      vertex -8 -20.5842 25.358
      vertex -10 -22.1972 25.0736
      vertex -10 -20.5842 25.358
    endloop
  endfacet
  facet normal 0 -0.5 -0.866025
    outer loop
      vertex -10 -20.5842 25.358
      vertex -8 -19.1658 24.5391
      vertex -8 -20.5842 25.358
    endloop
  endfacet
  facet normal -0 -0.5 -0.866025
    outer loop
      vertex -8 -19.1658 24.5391
      vertex -10 -20.5842 25.358
      vertex -10 -19.1658 24.5391
    endloop
  endfacet
  facet normal 0 0.766045 -0.642787
    outer loop
      vertex -8 -23.25 23.8189
      vertex -10 -22.1972 25.0736
      vertex -8 -22.1972 25.0736
    endloop
  endfacet
  facet normal 0 0.766045 -0.642787
    outer loop
      vertex -10 -22.1972 25.0736
      vertex -8 -23.25 23.8189
      vertex -10 -23.25 23.8189
    endloop
  endfacet
  facet normal -0 0.173648 0.984808
    outer loop
      vertex -10 -20.5842 20.642
      vertex -8 -22.1972 20.9264
      vertex -8 -20.5842 20.642
    endloop
  endfacet
  facet normal 0 0.173648 0.984808
    outer loop
      vertex -8 -22.1972 20.9264
      vertex -10 -20.5842 20.642
      vertex -10 -22.1972 20.9264
    endloop
  endfacet
  facet normal 0 1 -0
    outer loop
      vertex -8 -23.25 22.1811
      vertex -10 -23.25 23.8189
      vertex -8 -23.25 23.8189
    endloop
  endfacet
  facet normal 0 1 0
    outer loop
      vertex -10 -23.25 23.8189
      vertex -8 -23.25 22.1811
      vertex -10 -23.25 22.1811
    endloop
  endfacet
  facet normal 0 -0.939693 -0.34202
    outer loop
      vertex -10 -18.6056 23
      vertex -8 -19.1658 24.5391
      vertex -10 -19.1658 24.5391
    endloop
  endfacet
  facet normal 0 -0.939693 -0.34202
    outer loop
      vertex -8 -19.1658 24.5391
      vertex -10 -18.6056 23
      vertex -8 -18.6056 23
    endloop
  endfacet
  facet normal 0 -1 0
    outer loop
      vertex -8 8.5 -35
      vertex -6.5 8.5 41
      vertex -8 8.5 41
    endloop
  endfacet
  facet normal 0 -1 -0
    outer loop
      vertex -6.5 8.5 41
      vertex -8 8.5 -35
      vertex -6.5 8.5 -35
    endloop
  endfacet
  facet normal 0 -1 0
    outer loop
      vertex 6.5 8.5 -35
      vertex 8 8.5 41
      vertex 6.5 8.5 41
    endloop
  endfacet
  facet normal 0 -1 -0
    outer loop
      vertex 8 8.5 41
      vertex 6.5 8.5 -35
      vertex 8 8.5 -35
    endloop
  endfacet
  facet normal 1 -0 0
    outer loop
      vertex -8 -7.5 41
      vertex -8 8.5 -35
      vertex -8 8.5 41
    endloop
  endfacet
  facet normal 1 0 0
    outer loop
      vertex -8 8.5 -35
      vertex -8 -7.5 41
      vertex -8 -7.5 -35
    endloop
  endfacet
  facet normal 0 1 0
    outer loop
      vertex 8 -7.5 41
      vertex 0.9375 -7.5 4.6238
      vertex -8 -7.5 41
    endloop
  endfacet
  facet normal 0 1 0
    outer loop
      vertex 8 -7.5 41
      vertex 1.875 -7.5 3
      vertex 0.9375 -7.5 4.6238
    endloop
  endfacet
  facet normal 0 1 0
    outer loop
      vertex 0.9375 -7.5 1.3762
      vertex 8 -7.5 -35
      vertex -0.9375 -7.5 1.3762
    endloop
  endfacet
  facet normal 0 1 0
    outer loop
      vertex 1.875 -7.5 3
      vertex 8 -7.5 -35
      vertex 0.9375 -7.5 1.3762
    endloop
  endfacet
  facet normal 0 1 -0
    outer loop
      vertex 8 -7.5 -35
      vertex 1.875 -7.5 3
      vertex 8 -7.5 41
    endloop
  endfacet
  facet normal 0 1 -0
    outer loop
      vertex -0.937499 -7.5 4.6238
      vertex -8 -7.5 41
      vertex 0.9375 -7.5 4.6238
    endloop
  endfacet
  facet normal 0 1 -0
    outer loop
      vertex -1.875 -7.5 3
      vertex -8 -7.5 41
      vertex -0.937499 -7.5 4.6238
    endloop
  endfacet
  facet normal 0 1 0
    outer loop
      vertex -8 -7.5 -35
      vertex -0.9375 -7.5 1.3762
      vertex 8 -7.5 -35
    endloop
  endfacet
  facet normal 0 1 0
    outer loop
      vertex -1.875 -7.5 3
      vertex -8 -7.5 -35
      vertex -8 -7.5 41
    endloop
  endfacet
  facet normal 0 1 0
    outer loop
      vertex -0.9375 -7.5 1.3762
      vertex -8 -7.5 -35
      vertex -1.875 -7.5 3
    endloop
  endfacet
  facet normal -1 0 0
    outer loop
      vertex 8 -7.5 -35
      vertex 8 8.5 41
      vertex 8 8.5 -35
    endloop
  endfacet
  facet normal -1 -0 0
    outer loop
      vertex 8 8.5 41
      vertex 8 -7.5 -35
      vertex 8 -7.5 41
    endloop
  endfacet
  facet normal 1 -0 0
    outer loop
      vertex -6.5 8.5 41
      vertex -6.5 11 -35
      vertex -6.5 11 41
    endloop
  endfacet
  facet normal 1 0 0
    outer loop
      vertex -6.5 11 -35
      vertex -6.5 8.5 41
      vertex -6.5 8.5 -35
    endloop
  endfacet
  facet normal -1 0 0
    outer loop
      vertex 6.5 8.5 -35
      vertex 6.5 11 41
      vertex 6.5 11 -35
    endloop
  endfacet
  facet normal -1 -0 0
    outer loop
      vertex 6.5 11 41
      vertex 6.5 8.5 -35
      vertex 6.5 8.5 41
    endloop
  endfacet
endsolid OpenSCAD_Model
